<?xml version="1.0" encoding="UTF-8"?>
<!DOCTYPE svg PUBLIC "-//W3C//DTD SVG 1.1//EN" "http://www.w3.org/Graphics/SVG/1.1/DTD/svg11.dtd">
<svg xmlns="http://www.w3.org/2000/svg" version="1.1" width="512px" height="512px" style="shape-rendering:geometricPrecision; text-rendering:geometricPrecision; image-rendering:optimizeQuality; fill-rule:evenodd; clip-rule:evenodd" xmlns:xlink="http://www.w3.org/1999/xlink">
<g><path style="opacity:0.982" fill="#000000" d="M 511.5,135.5 C 511.5,140.833 511.5,146.167 511.5,151.5C 510.16,155.317 508.326,158.983 506,162.5C 481.833,186.667 457.667,210.833 433.5,235C 416.324,244.337 401.157,241.837 388,227.5C 380.432,213.942 380.765,200.609 389,187.5C 392.833,183.667 396.667,179.833 400.5,176C 375.833,175.333 351.167,175.333 326.5,176C 313.836,177.913 304.336,184.413 298,195.5C 266.733,250.425 235.066,305.092 203,359.5C 183.774,383.866 158.607,397.366 127.5,400C 94.1667,400.667 60.8333,400.667 27.5,400C 12.9549,397.613 3.6216,389.446 -0.5,375.5C -0.5,370.167 -0.5,364.833 -0.5,359.5C 3.72956,347.441 12.0629,339.607 24.5,336C 57.8333,335.667 91.1667,335.333 124.5,335C 134.39,334.139 142.556,329.972 149,322.5C 179.919,269.664 210.586,216.664 241,163.5C 259.617,132.247 287.117,114.747 323.5,111C 349.167,110.667 374.833,110.333 400.5,110C 393.482,104.323 387.982,97.4894 384,89.5C 378.87,68.5099 386.37,54.3433 406.5,47C 417.077,44.9234 426.744,46.9234 435.5,53C 458.667,76.1667 481.833,99.3333 505,122.5C 507.745,126.657 509.912,130.99 511.5,135.5 Z"/></g>
<g><path style="opacity:0.979" fill="#000000" d="M -0.5,151.5 C -0.5,146.167 -0.5,140.833 -0.5,135.5C 3.6216,121.554 12.9549,113.387 27.5,111C 60.8333,110.333 94.1667,110.333 127.5,111C 167.62,114.497 196.12,134.331 213,170.5C 215.784,190.112 207.951,203.278 189.5,210C 170.548,212.942 157.048,205.776 149,188.5C 142.556,181.028 134.39,176.861 124.5,176C 91.1667,175.667 57.8333,175.333 24.5,175C 12.0629,171.393 3.72956,163.559 -0.5,151.5 Z"/></g>
<g><path style="opacity:0.983" fill="#000000" d="M 511.5,359.5 C 511.5,364.833 511.5,370.167 511.5,375.5C 509.912,380.01 507.745,384.343 505,388.5C 481.833,411.667 458.667,434.833 435.5,458C 420.928,468.019 406.595,467.686 392.5,457C 382.195,445.785 379.695,432.952 385,418.5C 389.423,412.072 394.59,406.239 400.5,401C 375.167,400.667 349.833,400.333 324.5,400C 286.278,396.649 258.112,378.149 240,344.5C 234.56,326.225 240.06,312.392 256.5,303C 267.972,298.965 278.972,299.965 289.5,306C 296.07,313.147 302.403,320.48 308.5,328C 312.443,330.804 316.777,332.804 321.5,334C 347.798,335.611 374.131,335.945 400.5,335C 393.482,329.323 387.982,322.489 384,314.5C 379.361,299.086 383.195,286.253 395.5,276C 408.167,268.667 420.833,268.667 433.5,276C 457.667,300.167 481.833,324.333 506,348.5C 508.326,352.017 510.16,355.683 511.5,359.5 Z"/></g>
</svg>
