<?xml version="1.0" encoding="UTF-8"?>
<!DOCTYPE svg PUBLIC "-//W3C//DTD SVG 1.1//EN" "http://www.w3.org/Graphics/SVG/1.1/DTD/svg11.dtd">
<svg xmlns="http://www.w3.org/2000/svg" version="1.1" width="512px" height="512px" style="shape-rendering:geometricPrecision; text-rendering:geometricPrecision; image-rendering:optimizeQuality; fill-rule:evenodd; clip-rule:evenodd" xmlns:xlink="http://www.w3.org/1999/xlink">
<g><path style="opacity:0.97" fill="#000000" d="M 137.5,70.5 C 149.851,70.1676 162.185,70.501 174.5,71.5C 199.07,127.968 223.07,184.634 246.5,241.5C 232.151,241.833 217.818,241.499 203.5,240.5C 199.639,232.25 195.972,223.916 192.5,215.5C 168.507,214.334 144.507,214.167 120.5,215C 116.5,223.667 112.5,232.333 108.5,241C 94.1551,241.833 79.8217,241.666 65.5,240.5C 90.07,184.032 114.07,127.366 137.5,70.5 Z M 155.5,130.5 C 162.884,144.613 169.217,159.28 174.5,174.5C 162.149,174.832 149.815,174.499 137.5,173.5C 143.788,159.26 149.788,144.927 155.5,130.5 Z"/></g>
<g><path style="opacity:0.979" fill="#000000" d="M 334.5,70.5 C 347.5,70.5 360.5,70.5 373.5,70.5C 373.333,168.501 373.5,266.501 374,364.5C 388.652,350.682 403.152,336.682 417.5,322.5C 427.028,331.195 436.028,340.361 444.5,350C 415.012,380.821 384.846,410.988 354,440.5C 323.194,410.695 292.694,380.528 262.5,350C 271.681,340.652 281.014,331.486 290.5,322.5C 304.848,336.682 319.348,350.682 334,364.5C 334.5,266.501 334.667,168.501 334.5,70.5 Z"/></g>
<g><path style="opacity:0.966" fill="#000000" d="M 81.5,268.5 C 131.5,268.5 181.5,268.5 231.5,268.5C 231.957,280.268 231.457,291.935 230,303.5C 200.5,335.667 171,367.833 141.5,400C 171.498,400.5 201.498,400.667 231.5,400.5C 231.5,413.833 231.5,427.167 231.5,440.5C 181.5,440.5 131.5,440.5 81.5,440.5C 81.3335,428.829 81.5001,417.162 82,405.5C 111.5,373.333 141,341.167 170.5,309C 140.835,308.5 111.169,308.333 81.5,308.5C 81.5,295.167 81.5,281.833 81.5,268.5 Z"/></g>
</svg>
